<svg width="143.502" height="130.855" viewBox="-2 -2 143.502 130.855" xmlns="http://www.w3.org/2000/svg">
  <g id="svgGroup" stroke-linecap="round" fill-rule="nonzero" fill="#000000" stroke="#000000" stroke-width="0.5">
      <path d="M4.395 72.949L4.395 71.533Q4.395 69.971 4.810 68.091Q5.225 66.211 6.006 64.941L6.006 64.941Q6.836 63.721 7.910 62.476Q8.984 61.230 10.205 60.083Q11.426 58.936 12.695 57.910Q13.965 56.885 15.234 56.152L15.234 56.152Q15.674 56.055 15.918 55.957Q16.162 55.859 16.382 55.737Q16.602 55.615 16.870 55.444Q17.139 55.273 17.676 55.029L17.676 55.029Q18.311 54.785 19.287 54.590Q20.264 54.395 21.167 54.053Q22.070 53.711 22.705 53.125Q23.340 52.539 23.340 51.514L23.340 51.514Q23.340 51.416 22.705 50.757Q22.070 50.098 21.265 49.268Q20.459 48.438 19.727 47.681Q18.994 46.924 18.848 46.680L18.848 46.680Q18.555 46.191 17.725 45.142Q16.895 44.092 16.040 42.944Q15.186 41.797 14.526 40.796Q13.867 39.795 13.867 39.502L13.867 39.502L14.111 38.428Q14.209 38.184 14.282 37.305Q14.355 36.426 14.453 35.889L14.453 35.889Q14.551 34.570 14.917 33.594Q15.283 32.617 15.894 31.787Q16.504 30.957 17.334 30.176Q18.164 29.395 19.189 28.369L19.189 28.369Q19.971 27.588 21.069 27.173Q22.168 26.758 23.389 26.538Q24.609 26.318 25.854 26.270Q27.100 26.221 28.125 26.221L28.125 26.221Q31.934 26.221 34.839 27.832Q37.744 29.443 39.600 32.764L39.600 32.764Q39.600 32.861 39.746 33.081Q39.893 33.301 40.088 33.545Q40.283 33.789 40.454 34.033Q40.625 34.277 40.625 34.375L40.625 34.375Q40.625 37.061 40.063 38.647Q39.502 40.234 38.525 41.357Q37.549 42.480 36.279 43.481Q35.010 44.482 33.643 45.996L33.643 45.996Q33.643 46.436 34.302 47.583Q34.961 48.730 35.815 49.927Q36.670 51.123 37.500 52.124Q38.330 53.125 38.672 53.271L38.672 53.271Q38.916 53.418 39.355 53.564Q39.795 53.711 40.259 53.931Q40.723 54.150 41.138 54.419Q41.553 54.688 41.797 55.029L41.797 55.029Q42.480 56.006 43.066 57.275Q43.652 58.545 44.385 59.668Q45.117 60.791 46.118 61.548Q47.119 62.305 48.584 62.305L48.584 62.305Q49.658 62.305 50.244 61.450Q50.830 60.596 51.123 59.424Q51.416 58.252 51.563 57.031Q51.709 55.811 51.953 55.029L51.953 55.029Q52.148 54.150 52.612 53.320Q53.076 52.490 53.076 51.514L53.076 51.514Q53.076 50.635 52.246 49.658Q51.416 48.682 50.415 47.729Q49.414 46.777 48.584 45.898Q47.754 45.020 47.754 44.385L47.754 44.385L47.754 43.408Q49.316 42.969 51.123 42.627Q52.930 42.285 54.492 42.285L54.492 42.285Q54.932 42.285 55.615 42.285Q56.299 42.285 57.031 42.334Q57.764 42.383 58.423 42.432Q59.082 42.480 59.473 42.627L59.473 42.627Q59.570 42.627 59.814 42.798Q60.059 42.969 60.352 43.188Q60.645 43.408 60.889 43.604Q61.133 43.799 61.230 43.799L61.230 43.799Q61.328 43.848 61.475 43.848L61.475 43.848Q61.621 43.896 61.914 43.896L61.914 43.896Q62.451 43.896 62.964 43.823Q63.477 43.750 64.014 43.652L64.014 43.652Q64.404 43.408 64.966 43.262Q65.527 43.115 65.918 43.115L65.918 43.115L67.236 43.408Q67.725 43.750 68.262 43.945Q68.799 44.141 69.189 44.360Q69.580 44.580 69.849 44.946Q70.117 45.313 70.117 45.996L70.117 45.996Q70.117 46.777 69.800 46.973Q69.482 47.168 68.945 47.607L68.945 47.607Q68.652 47.705 68.066 47.949Q67.480 48.193 66.821 48.486Q66.162 48.779 65.576 49.023Q64.990 49.268 64.697 49.365L64.697 49.365Q64.502 49.316 64.185 49.316Q63.867 49.316 63.428 49.316L63.428 49.316Q61.670 49.316 60.474 50.464Q59.277 51.611 58.423 53.247Q57.568 54.883 56.934 56.616Q56.299 58.350 55.664 59.521L55.664 59.521Q55.225 60.352 54.639 61.157Q54.053 61.963 53.491 62.842Q52.930 63.721 52.563 64.648Q52.197 65.576 52.197 66.602L52.197 66.602Q52.197 67.188 52.563 67.798Q52.930 68.408 53.418 68.994Q53.906 69.580 54.443 70.117Q54.980 70.654 55.322 71.094L55.322 71.094Q56.982 73.193 58.667 75.171Q60.352 77.148 62.598 78.711L62.598 78.711Q63.281 79.199 64.795 79.663Q66.309 80.127 67.822 80.713Q69.336 81.299 70.483 82.129Q71.631 82.959 71.631 84.180L71.631 84.180Q71.631 86.523 70.068 87.671Q68.506 88.818 66.406 88.818L66.406 88.818Q65.576 88.818 64.941 88.794Q64.307 88.770 63.696 88.696Q63.086 88.623 62.354 88.477Q61.621 88.330 60.645 88.086L60.645 88.086Q59.766 87.549 59.229 86.694Q58.691 85.840 57.764 85.205L57.764 85.205Q57.373 84.912 56.836 84.741Q56.299 84.570 55.786 84.399Q55.273 84.229 54.810 83.984Q54.346 83.740 54.150 83.350L54.150 83.350Q53.711 82.764 53.320 81.738Q52.930 80.713 52.441 79.736Q51.953 78.760 51.294 78.052Q50.635 77.344 49.658 77.344L49.658 77.344Q48.926 77.344 47.778 78.613Q46.631 79.883 45.361 81.567Q44.092 83.252 42.847 84.912Q41.602 86.572 40.576 87.402L40.576 87.402Q38.818 88.721 37.280 89.624Q35.742 90.527 34.155 91.138Q32.568 91.748 30.859 92.212Q29.150 92.676 27.100 93.164L27.100 93.164L24.414 93.652Q22.949 93.652 21.851 93.408Q20.752 93.164 19.727 92.773Q18.701 92.383 17.651 91.846Q16.602 91.309 15.234 90.771L15.234 90.771Q14.551 90.576 14.185 90.576Q13.818 90.576 13.281 90.381L13.281 90.381Q12.598 89.893 12.256 89.722Q11.914 89.551 11.670 89.526Q11.426 89.502 11.157 89.429Q10.889 89.355 10.400 89.014L10.400 89.014Q10.156 89.014 10.156 88.770L10.156 88.770Q9.717 88.135 9.180 87.354Q8.643 86.572 8.130 85.767Q7.617 84.961 7.227 84.180Q6.836 83.398 6.689 82.764L6.689 82.764Q6.689 82.666 6.592 82.153Q6.494 81.641 6.445 81.055L6.445 81.055Q6.201 80.420 6.152 79.932Q6.104 79.443 6.006 79.199L6.006 79.199L5.078 77.588Q4.932 77.393 4.810 76.880Q4.688 76.367 4.590 75.708Q4.492 75.049 4.443 74.316Q4.395 73.584 4.395 72.949L4.395 72.949ZM14.111 76.611L17.334 79.736Q17.725 80.566 18.091 81.201Q18.457 81.836 18.945 82.373Q19.434 82.910 20.093 83.325Q20.752 83.740 21.729 84.131L21.729 84.131Q22.021 84.180 22.241 84.229Q22.461 84.277 22.705 84.277L22.705 84.277Q23.145 84.277 23.682 84.717L23.682 84.717Q24.561 85.449 25.049 85.840Q25.537 86.230 26.611 86.230L26.611 86.230Q28.467 86.230 30.078 85.791Q31.689 85.352 33.350 84.717L33.350 84.717Q33.447 84.619 33.789 84.546Q34.131 84.473 34.546 84.399Q34.961 84.326 35.327 84.277Q35.693 84.229 35.840 84.131L35.840 84.131L37.158 82.764Q37.207 82.715 37.476 82.568Q37.744 82.422 38.086 82.227Q38.428 82.031 38.770 81.860Q39.111 81.689 39.307 81.592L39.307 81.592Q40.137 81.152 41.016 80.688Q41.895 80.225 42.139 79.199L42.139 79.199L45.947 75.586Q46.289 75.244 46.411 74.585Q46.533 73.926 46.533 73.486L46.533 73.486Q45.654 72.852 45.117 72.119Q44.580 71.387 44.141 70.654Q43.701 69.922 43.262 69.263Q42.822 68.604 42.139 68.066L42.139 68.066Q41.406 67.529 40.796 66.748Q40.186 65.967 39.575 65.161Q38.965 64.355 38.379 63.647Q37.793 62.939 37.158 62.549L37.158 62.549Q35.645 62.012 34.521 61.108Q33.398 60.205 32.129 59.180L32.129 59.180Q31.055 58.252 30.444 57.422Q29.834 56.592 29.272 55.859Q28.711 55.127 27.954 54.541Q27.197 53.955 25.830 53.516L25.830 53.516Q25.244 53.516 24.414 54.053Q23.584 54.590 22.607 55.469Q21.631 56.348 20.581 57.373Q19.531 58.398 18.555 59.424Q17.578 60.449 16.772 61.279Q15.967 62.109 15.479 62.549L15.479 62.549Q14.844 63.574 14.502 64.795Q14.160 66.016 13.916 67.261Q13.672 68.506 13.452 69.751Q13.232 70.996 12.842 72.119L12.842 72.119Q12.842 72.656 12.988 73.291Q13.135 73.926 13.330 74.585Q13.525 75.244 13.745 75.781Q13.965 76.318 14.111 76.611L14.111 76.611ZM22.656 36.475L22.656 36.475Q22.656 37.646 23.242 38.965Q23.828 40.283 24.780 41.382Q25.732 42.480 26.904 43.188Q28.076 43.896 29.248 43.896L29.248 43.896Q29.443 43.896 29.810 43.848Q30.176 43.799 30.225 43.408L30.225 43.408Q30.225 42.139 30.225 41.675Q30.225 41.211 30.176 41.016L30.176 41.016Q30.078 40.479 30.005 40.063Q29.932 39.648 29.932 39.355L29.932 39.355Q29.932 38.818 30.029 38.599Q30.127 38.379 30.322 38.135L30.322 38.135Q30.859 37.500 30.859 36.865L30.859 36.865Q30.859 35.742 30.688 34.497Q30.518 33.252 30.005 32.227Q29.492 31.201 28.564 30.542Q27.637 29.883 26.123 29.883L26.123 29.883Q25.195 29.883 24.536 30.688Q23.877 31.494 23.462 32.568Q23.047 33.643 22.852 34.766Q22.656 35.889 22.656 36.475ZM95.068 90.283L94.336 90.283Q91.211 90.283 88.623 89.087Q86.035 87.891 84.375 85.107L84.375 85.107L81.982 82.666Q81.934 82.422 81.641 81.738Q81.348 81.055 81.006 80.273Q80.664 79.492 80.371 78.857Q80.078 78.223 80.078 78.027L80.078 78.027L80.078 75.391Q79.980 74.805 79.761 74.341Q79.541 73.877 79.272 73.413Q79.004 72.949 78.809 72.485Q78.613 72.021 78.613 71.436L78.613 71.436L79.053 65.430Q79.053 64.990 78.882 64.502Q78.711 64.014 78.711 63.477L78.711 63.477Q78.711 62.793 78.882 62.305Q79.053 61.816 79.248 61.328Q79.443 60.840 79.614 60.278Q79.785 59.717 79.785 58.838L79.785 58.838L83.203 54.443L82.861 53.711Q83.008 53.516 83.203 53.271L83.203 53.271Q83.350 53.076 83.521 52.832Q83.691 52.588 83.838 52.344L83.838 52.344Q86.719 48.779 90.527 46.655Q94.336 44.531 98.877 43.311L98.877 43.311L99.756 43.066Q102.393 43.066 105.054 43.555Q107.715 44.043 110.107 44.922L110.107 44.922Q110.449 45.752 111.206 45.972Q111.963 46.191 112.646 46.191L112.646 46.191Q113.086 46.973 113.477 47.559Q113.867 48.145 114.160 48.730Q114.453 49.316 114.624 49.976Q114.795 50.635 114.795 51.514L114.795 51.514Q114.795 53.271 113.574 54.492Q112.354 55.713 110.107 55.713L110.107 55.713Q109.961 55.518 109.717 55.200Q109.473 54.883 109.180 54.565Q108.887 54.248 108.643 54.004Q108.398 53.760 108.252 53.711L108.252 53.711Q108.203 53.613 107.764 53.540Q107.324 53.467 107.275 53.467L107.275 53.467Q106.104 52.930 105.493 51.782Q104.883 50.635 104.224 49.487Q103.564 48.340 102.612 47.461Q101.660 46.582 99.756 46.582L99.756 46.582Q98.340 46.582 97.168 47.046Q95.996 47.510 94.922 48.267Q93.848 49.023 92.896 50.024Q91.943 51.025 90.967 52.100L90.967 52.100Q90.771 52.490 90.332 52.905Q89.893 53.320 89.746 53.711L89.746 53.711L89.746 55.713L89.355 56.299Q88.574 57.861 88.281 59.277Q87.988 60.693 87.988 62.500L87.988 62.500Q87.988 62.793 87.988 63.208Q87.988 63.623 88.037 64.038Q88.086 64.453 88.135 64.771Q88.184 65.088 88.330 65.088L88.330 65.088Q88.330 65.479 88.354 66.040Q88.379 66.602 88.428 67.139Q88.477 67.676 88.525 68.066Q88.574 68.457 88.574 68.457L88.574 68.457L89.014 69.141L89.014 70.508Q89.014 71.631 89.136 72.461Q89.258 73.291 89.526 74.048Q89.795 74.805 90.161 75.562Q90.527 76.318 90.967 77.246L90.967 77.246Q90.967 77.344 91.357 77.905Q91.748 78.467 92.188 79.126Q92.627 79.785 93.018 80.347Q93.408 80.908 93.506 81.055L93.506 81.055Q93.896 81.494 94.531 81.592Q95.166 81.689 95.508 81.982L95.508 81.982Q96.289 82.568 96.802 82.983Q97.314 83.398 97.827 83.691Q98.340 83.984 98.926 84.131Q99.512 84.277 100.488 84.277L100.488 84.277Q102.734 84.277 105.078 83.350Q107.422 82.422 109.180 81.055L109.180 81.055Q109.570 80.762 110.034 80.298Q110.498 79.834 110.986 79.395Q111.475 78.955 111.987 78.613Q112.500 78.271 112.988 78.271L112.988 78.271Q113.867 78.271 114.185 78.613Q114.502 78.955 114.502 79.785L114.502 79.785L114.502 80.371Q113.672 83.154 111.890 85.156Q110.107 87.158 107.764 88.452Q105.420 89.746 102.734 90.381Q100.049 91.016 97.461 91.016L97.461 91.016L95.947 91.016L95.068 90.283ZM122.803 83.594L122.803 83.594Q122.803 80.664 124.072 79.126Q125.342 77.588 128.418 77.588L128.418 77.588Q129.443 77.588 130.225 77.930Q131.006 78.271 131.836 78.613L131.836 78.613Q132.910 79.150 133.472 79.639Q134.033 80.127 134.302 80.737Q134.570 81.348 134.619 82.129Q134.668 82.910 134.668 84.033L134.668 84.033L134.668 86.914Q134.570 87.305 134.106 87.915Q133.643 88.525 133.032 89.111Q132.422 89.697 131.787 90.112Q131.152 90.527 130.713 90.527L130.713 90.527Q129.004 90.186 127.563 89.746Q126.123 89.307 125.073 88.574Q124.023 87.842 123.413 86.646Q122.803 85.449 122.803 83.594Z" />
  </g>
</svg>